<mxfile host="65bd71144e">
    <diagram id="bjlZ0zd4Mc29UOtGL3SB" name="Pagination Flow">
        <mxGraphModel dx="734" dy="431" grid="1" gridSize="10" guides="1" tooltips="1" connect="1" arrows="1" fold="1" page="1" pageScale="1" pageWidth="827" pageHeight="1169" math="0" shadow="0">
            <root>
                <mxCell id="0"/>
                <mxCell id="1" parent="0"/>
                <mxCell id="2" value="STATE&lt;br&gt;modifiedCountries" style="whiteSpace=wrap;html=1;aspect=fixed;fillColor=#6a00ff;strokeColor=#3700CC;fontColor=#ffffff;rounded=1;" parent="1" vertex="1">
                    <mxGeometry x="139" y="130" width="110" height="110" as="geometry"/>
                </mxCell>
                <mxCell id="3" value="Paginate" style="swimlane;fillColor=#1ba1e2;strokeColor=#006EAF;fontColor=#ffffff;strokeWidth=4;rounded=1;glass=0;sketch=0;shadow=0;" parent="1" vertex="1">
                    <mxGeometry x="139" y="290" width="140" height="140" as="geometry"/>
                </mxCell>
                <mxCell id="11" value="Renderiza los botones&lt;br&gt;de la&amp;nbsp;paginación" style="text;html=1;align=left;verticalAlign=middle;resizable=0;points=[];autosize=1;fontColor=#007FFF;" parent="3" vertex="1">
                    <mxGeometry x="5" y="40" width="130" height="30" as="geometry"/>
                </mxCell>
                <mxCell id="26" value="Consume información&lt;br&gt;de modifiedCountries" style="text;html=1;align=left;verticalAlign=middle;resizable=0;points=[];autosize=1;fontColor=#007FFF;" parent="3" vertex="1">
                    <mxGeometry x="5" y="80" width="130" height="30" as="geometry"/>
                </mxCell>
                <mxCell id="4" value="Modifiers" style="swimlane;startSize=23;fillColor=#1ba1e2;strokeColor=#006EAF;fontColor=#ffffff;strokeWidth=4;rounded=1;glass=0;sketch=0;shadow=0;" parent="1" vertex="1">
                    <mxGeometry x="289" y="290" width="120" height="140" as="geometry"/>
                </mxCell>
                <mxCell id="16" value="Modifica al state &lt;br&gt;modifiedCountries" style="text;html=1;align=left;verticalAlign=middle;resizable=0;points=[];autosize=1;fontColor=#007FFF;" parent="4" vertex="1">
                    <mxGeometry x="10" y="40" width="110" height="30" as="geometry"/>
                </mxCell>
                <mxCell id="ETqiRZU85Ff0N8fMpSK4-54" value="Paginate" style="shape=process;whiteSpace=wrap;html=1;backgroundOutline=1;fillColor=#1ba1e2;strokeColor=#006EAF;fontColor=#ffffff;rounded=1;" vertex="1" parent="4">
                    <mxGeometry x="10" y="80" width="70" height="30" as="geometry"/>
                </mxCell>
                <mxCell id="5" value="Home" style="swimlane;startSize=23;fillColor=#1ba1e2;strokeColor=#006EAF;fontColor=#ffffff;strokeWidth=4;rounded=1;glass=0;sketch=0;shadow=0;" parent="1" vertex="1">
                    <mxGeometry x="419" y="290" width="130" height="140" as="geometry"/>
                </mxCell>
                <mxCell id="22" value="Manda los countries&lt;br&gt;&lt;div&gt;&lt;span&gt;al componente Cards&lt;/span&gt;&lt;/div&gt;" style="text;html=1;align=left;verticalAlign=middle;resizable=0;points=[];autosize=1;fontColor=#007FFF;" parent="5" vertex="1">
                    <mxGeometry x="5" y="80" width="130" height="30" as="geometry"/>
                </mxCell>
                <mxCell id="21" value="Trae la info del state&lt;br&gt;&lt;div style=&quot;&quot;&gt;&lt;span&gt;modifiesCountries&lt;/span&gt;&lt;/div&gt;" style="text;html=1;align=left;verticalAlign=middle;resizable=0;points=[];autosize=1;fontColor=#007FFF;" parent="5" vertex="1">
                    <mxGeometry x="5" y="40" width="120" height="30" as="geometry"/>
                </mxCell>
                <mxCell id="6" value="HELPER&lt;br&gt;paginate.js" style="rounded=1;whiteSpace=wrap;html=1;fillColor=#e3c800;strokeColor=#B09500;fontColor=#000000;glass=0;" parent="1" vertex="1">
                    <mxGeometry x="80" y="500" width="120" height="60" as="geometry"/>
                </mxCell>
                <mxCell id="10" value="" style="endArrow=classic;startArrow=classic;html=1;entryX=0.75;entryY=0;entryDx=0;entryDy=0;strokeColor=#007FFF;strokeWidth=3;rounded=1;" parent="1" target="6" edge="1">
                    <mxGeometry width="50" height="50" relative="1" as="geometry">
                        <mxPoint x="170" y="430" as="sourcePoint"/>
                        <mxPoint x="529" y="310" as="targetPoint"/>
                        <Array as="points">
                            <mxPoint x="170" y="480"/>
                        </Array>
                    </mxGeometry>
                </mxCell>
                <mxCell id="14" value="" style="endArrow=classic;startArrow=classic;html=1;exitX=0.5;exitY=0;exitDx=0;exitDy=0;entryX=1;entryY=0.25;entryDx=0;entryDy=0;strokeColor=#007FFF;strokeWidth=3;rounded=1;" parent="1" source="5" target="2" edge="1">
                    <mxGeometry width="50" height="50" relative="1" as="geometry">
                        <mxPoint x="543" y="200" as="sourcePoint"/>
                        <mxPoint x="593" y="150" as="targetPoint"/>
                        <Array as="points">
                            <mxPoint x="484" y="158"/>
                        </Array>
                    </mxGeometry>
                </mxCell>
                <mxCell id="15" value="" style="endArrow=classic;html=1;exitX=0.75;exitY=0;exitDx=0;exitDy=0;entryX=1;entryY=0.367;entryDx=0;entryDy=0;entryPerimeter=0;strokeColor=#007FFF;strokeWidth=3;rounded=1;" parent="1" source="4" target="2" edge="1">
                    <mxGeometry width="50" height="50" relative="1" as="geometry">
                        <mxPoint x="469" y="280" as="sourcePoint"/>
                        <mxPoint x="519" y="230" as="targetPoint"/>
                        <Array as="points">
                            <mxPoint x="379" y="260"/>
                            <mxPoint x="409" y="260"/>
                            <mxPoint x="409" y="170"/>
                        </Array>
                    </mxGeometry>
                </mxCell>
                <mxCell id="17" value="Cards" style="swimlane;align=center;fillColor=#1ba1e2;strokeColor=#006EAF;fontColor=#ffffff;strokeWidth=4;rounded=1;glass=0;sketch=0;shadow=0;" parent="1" vertex="1">
                    <mxGeometry x="559" y="290" width="130" height="140" as="geometry"/>
                </mxCell>
                <mxCell id="23" value="&lt;div style=&quot;&quot;&gt;&lt;span&gt;Renderiza el state&lt;/span&gt;&lt;/div&gt;&lt;div style=&quot;&quot;&gt;&lt;span&gt;modifiesCountries&lt;/span&gt;&lt;/div&gt;" style="text;html=1;align=left;verticalAlign=middle;resizable=0;points=[];autosize=1;fontColor=#007FFF;" parent="17" vertex="1">
                    <mxGeometry x="10" y="40" width="110" height="30" as="geometry"/>
                </mxCell>
                <mxCell id="20" value="" style="endArrow=classic;html=1;exitX=0.75;exitY=0;exitDx=0;exitDy=0;entryX=0.5;entryY=0;entryDx=0;entryDy=0;strokeColor=#007FFF;strokeWidth=3;rounded=1;" parent="1" source="5" target="17" edge="1">
                    <mxGeometry width="50" height="50" relative="1" as="geometry">
                        <mxPoint x="409" y="340" as="sourcePoint"/>
                        <mxPoint x="629" y="260" as="targetPoint"/>
                        <Array as="points">
                            <mxPoint x="517" y="270"/>
                            <mxPoint x="624" y="270"/>
                        </Array>
                    </mxGeometry>
                </mxCell>
                <mxCell id="24" value="&lt;b&gt;&lt;u&gt;&lt;font style=&quot;font-size: 14px&quot;&gt;FLUJO DE PAGINACIÓN Y RENDERIZADO&lt;/font&gt;&lt;/u&gt;&lt;/b&gt;" style="text;html=1;align=center;verticalAlign=middle;resizable=0;points=[];autosize=1;strokeColor=none;fontColor=#007FFF;" parent="1" vertex="1">
                    <mxGeometry x="264" y="60" width="300" height="20" as="geometry"/>
                </mxCell>
                <mxCell id="25" value="" style="endArrow=classic;html=1;fontColor=#007FFF;strokeColor=#007FFF;strokeWidth=3;exitX=0.25;exitY=1;exitDx=0;exitDy=0;entryX=0.198;entryY=-0.002;entryDx=0;entryDy=0;entryPerimeter=0;" parent="1" source="2" target="3" edge="1">
                    <mxGeometry width="50" height="50" relative="1" as="geometry">
                        <mxPoint x="400" y="290" as="sourcePoint"/>
                        <mxPoint x="450" y="240" as="targetPoint"/>
                    </mxGeometry>
                </mxCell>
                <mxCell id="27" value="fn&lt;br&gt;cutterPage" style="rounded=1;whiteSpace=wrap;html=1;fillColor=#e3c800;strokeColor=#B09500;fontColor=#000000;glass=0;" vertex="1" parent="1">
                    <mxGeometry x="240" y="500" width="120" height="60" as="geometry"/>
                </mxCell>
                <mxCell id="28" value="" style="endArrow=classic;startArrow=classic;html=1;exitX=1;exitY=0.5;exitDx=0;exitDy=0;entryX=0;entryY=0.5;entryDx=0;entryDy=0;fillColor=#1ba1e2;strokeWidth=3;strokeColor=#007FFF;" edge="1" parent="1" source="6" target="27">
                    <mxGeometry width="50" height="50" relative="1" as="geometry">
                        <mxPoint x="350" y="500" as="sourcePoint"/>
                        <mxPoint x="400" y="450" as="targetPoint"/>
                    </mxGeometry>
                </mxCell>
                <mxCell id="29" value="" style="endArrow=classic;html=1;fillColor=#1ba1e2;strokeWidth=3;strokeColor=#007FFF;exitX=0;exitY=0.25;exitDx=0;exitDy=0;" edge="1" parent="1" source="27">
                    <mxGeometry width="50" height="50" relative="1" as="geometry">
                        <mxPoint x="210" y="430" as="sourcePoint"/>
                        <mxPoint x="220" y="430" as="targetPoint"/>
                        <Array as="points">
                            <mxPoint x="220" y="515"/>
                        </Array>
                    </mxGeometry>
                </mxCell>
                <mxCell id="30" value="" style="endArrow=classic;html=1;fillColor=#1ba1e2;strokeWidth=3;strokeColor=#007FFF;entryX=1;entryY=0.25;entryDx=0;entryDy=0;" edge="1" parent="1" target="27">
                    <mxGeometry width="50" height="50" relative="1" as="geometry">
                        <mxPoint x="390" y="430" as="sourcePoint"/>
                        <mxPoint x="389" y="430" as="targetPoint"/>
                        <Array as="points">
                            <mxPoint x="390" y="470"/>
                            <mxPoint x="390" y="515"/>
                        </Array>
                    </mxGeometry>
                </mxCell>
                <mxCell id="31" value="" style="endArrow=classic;html=1;strokeColor=#007FFF;strokeWidth=3;exitX=0.75;exitY=0;exitDx=0;exitDy=0;" edge="1" parent="1" source="3">
                    <mxGeometry width="50" height="50" relative="1" as="geometry">
                        <mxPoint x="350" y="420" as="sourcePoint"/>
                        <mxPoint x="320" y="290" as="targetPoint"/>
                        <Array as="points">
                            <mxPoint x="244" y="270"/>
                            <mxPoint x="320" y="270"/>
                        </Array>
                    </mxGeometry>
                </mxCell>
                <mxCell id="ETqiRZU85Ff0N8fMpSK4-31" value="STATE&lt;br&gt;modifiedCountries" style="whiteSpace=wrap;html=1;aspect=fixed;fillColor=#6a00ff;strokeColor=#3700CC;fontColor=#ffffff;rounded=1;" vertex="1" parent="1">
                    <mxGeometry x="139" y="620" width="110" height="110" as="geometry"/>
                </mxCell>
                <mxCell id="ETqiRZU85Ff0N8fMpSK4-32" value="Paginate" style="swimlane;fillColor=#1ba1e2;strokeColor=#006EAF;fontColor=#ffffff;strokeWidth=4;rounded=1;glass=0;sketch=0;shadow=0;" vertex="1" parent="1">
                    <mxGeometry x="139" y="780" width="140" height="140" as="geometry"/>
                </mxCell>
                <mxCell id="ETqiRZU85Ff0N8fMpSK4-33" value="Renderiza los botones&lt;br&gt;de la&amp;nbsp;paginación" style="text;html=1;align=left;verticalAlign=middle;resizable=0;points=[];autosize=1;fontColor=#007FFF;" vertex="1" parent="ETqiRZU85Ff0N8fMpSK4-32">
                    <mxGeometry x="5" y="30" width="130" height="30" as="geometry"/>
                </mxCell>
                <mxCell id="ETqiRZU85Ff0N8fMpSK4-37" value="Home" style="swimlane;startSize=23;fillColor=#1ba1e2;strokeColor=#006EAF;fontColor=#ffffff;strokeWidth=4;rounded=1;glass=0;sketch=0;shadow=0;" vertex="1" parent="1">
                    <mxGeometry x="400" y="780" width="130" height="150" as="geometry"/>
                </mxCell>
                <mxCell id="ETqiRZU85Ff0N8fMpSK4-38" value="Manda los countries&lt;br&gt;&lt;div&gt;&lt;span&gt;al componente Cards&lt;/span&gt;&lt;/div&gt;" style="text;html=1;align=left;verticalAlign=middle;resizable=0;points=[];autosize=1;fontColor=#007FFF;" vertex="1" parent="ETqiRZU85Ff0N8fMpSK4-37">
                    <mxGeometry x="5" y="70" width="130" height="30" as="geometry"/>
                </mxCell>
                <mxCell id="ETqiRZU85Ff0N8fMpSK4-39" value="Trae la info del state&lt;br&gt;&lt;div style=&quot;&quot;&gt;&lt;span&gt;modifiesCountries&lt;/span&gt;&lt;/div&gt;" style="text;html=1;align=left;verticalAlign=middle;resizable=0;points=[];autosize=1;fontColor=#007FFF;" vertex="1" parent="ETqiRZU85Ff0N8fMpSK4-37">
                    <mxGeometry x="5" y="30" width="120" height="30" as="geometry"/>
                </mxCell>
                <mxCell id="ETqiRZU85Ff0N8fMpSK4-55" value="Paginate" style="shape=process;whiteSpace=wrap;html=1;backgroundOutline=1;fillColor=#1ba1e2;strokeColor=#006EAF;fontColor=#ffffff;rounded=1;" vertex="1" parent="ETqiRZU85Ff0N8fMpSK4-37">
                    <mxGeometry x="5" y="110" width="70" height="30" as="geometry"/>
                </mxCell>
                <mxCell id="ETqiRZU85Ff0N8fMpSK4-40" value="HELPER&lt;br&gt;paginate.js" style="rounded=1;whiteSpace=wrap;html=1;fillColor=#e3c800;strokeColor=#B09500;fontColor=#000000;glass=0;" vertex="1" parent="1">
                    <mxGeometry x="149" y="990" width="120" height="60" as="geometry"/>
                </mxCell>
                <mxCell id="ETqiRZU85Ff0N8fMpSK4-41" value="" style="endArrow=classic;startArrow=classic;html=1;entryX=0.5;entryY=0;entryDx=0;entryDy=0;strokeColor=#007FFF;strokeWidth=3;rounded=1;exitX=0.5;exitY=1;exitDx=0;exitDy=0;" edge="1" parent="1" target="ETqiRZU85Ff0N8fMpSK4-40" source="ETqiRZU85Ff0N8fMpSK4-32">
                    <mxGeometry width="50" height="50" relative="1" as="geometry">
                        <mxPoint x="170" y="920" as="sourcePoint"/>
                        <mxPoint x="529" y="800" as="targetPoint"/>
                        <Array as="points">
                            <mxPoint x="209" y="970"/>
                        </Array>
                    </mxGeometry>
                </mxCell>
                <mxCell id="ETqiRZU85Ff0N8fMpSK4-42" value="" style="endArrow=classic;startArrow=classic;html=1;exitX=0.5;exitY=0;exitDx=0;exitDy=0;entryX=1;entryY=0.5;entryDx=0;entryDy=0;strokeColor=#007FFF;strokeWidth=3;rounded=1;" edge="1" parent="1" source="ETqiRZU85Ff0N8fMpSK4-37" target="ETqiRZU85Ff0N8fMpSK4-31">
                    <mxGeometry width="50" height="50" relative="1" as="geometry">
                        <mxPoint x="543" y="690" as="sourcePoint"/>
                        <mxPoint x="593" y="640" as="targetPoint"/>
                        <Array as="points">
                            <mxPoint x="465" y="675"/>
                        </Array>
                    </mxGeometry>
                </mxCell>
                <mxCell id="ETqiRZU85Ff0N8fMpSK4-44" value="Cards" style="swimlane;align=center;fillColor=#1ba1e2;strokeColor=#006EAF;fontColor=#ffffff;strokeWidth=4;rounded=1;glass=0;sketch=0;shadow=0;" vertex="1" parent="1">
                    <mxGeometry x="559" y="780" width="130" height="140" as="geometry"/>
                </mxCell>
                <mxCell id="ETqiRZU85Ff0N8fMpSK4-45" value="&lt;div style=&quot;&quot;&gt;&lt;span&gt;Renderiza el state&lt;/span&gt;&lt;/div&gt;&lt;div style=&quot;&quot;&gt;&lt;span&gt;modifiesCountries&lt;/span&gt;&lt;/div&gt;" style="text;html=1;align=left;verticalAlign=middle;resizable=0;points=[];autosize=1;fontColor=#007FFF;" vertex="1" parent="ETqiRZU85Ff0N8fMpSK4-44">
                    <mxGeometry x="10" y="30" width="110" height="30" as="geometry"/>
                </mxCell>
                <mxCell id="ETqiRZU85Ff0N8fMpSK4-46" value="" style="endArrow=classic;html=1;exitX=0.75;exitY=0;exitDx=0;exitDy=0;entryX=0.5;entryY=0;entryDx=0;entryDy=0;strokeColor=#007FFF;strokeWidth=3;rounded=1;" edge="1" parent="1" source="ETqiRZU85Ff0N8fMpSK4-37" target="ETqiRZU85Ff0N8fMpSK4-44">
                    <mxGeometry width="50" height="50" relative="1" as="geometry">
                        <mxPoint x="409" y="830" as="sourcePoint"/>
                        <mxPoint x="629" y="750" as="targetPoint"/>
                        <Array as="points">
                            <mxPoint x="498" y="760"/>
                            <mxPoint x="624" y="760"/>
                        </Array>
                    </mxGeometry>
                </mxCell>
                <mxCell id="ETqiRZU85Ff0N8fMpSK4-48" value="fn&lt;br&gt;cutterPage" style="rounded=1;whiteSpace=wrap;html=1;fillColor=#e3c800;strokeColor=#B09500;fontColor=#000000;glass=0;" vertex="1" parent="1">
                    <mxGeometry x="405" y="990" width="120" height="60" as="geometry"/>
                </mxCell>
                <mxCell id="ETqiRZU85Ff0N8fMpSK4-49" value="" style="endArrow=classic;startArrow=classic;html=1;exitX=1;exitY=0.5;exitDx=0;exitDy=0;entryX=0;entryY=0.5;entryDx=0;entryDy=0;fillColor=#1ba1e2;strokeWidth=3;strokeColor=#007FFF;" edge="1" parent="1" source="ETqiRZU85Ff0N8fMpSK4-40" target="ETqiRZU85Ff0N8fMpSK4-48">
                    <mxGeometry width="50" height="50" relative="1" as="geometry">
                        <mxPoint x="350" y="990" as="sourcePoint"/>
                        <mxPoint x="400" y="940" as="targetPoint"/>
                    </mxGeometry>
                </mxCell>
                <mxCell id="ETqiRZU85Ff0N8fMpSK4-50" value="" style="endArrow=classic;html=1;fillColor=#1ba1e2;strokeWidth=3;strokeColor=#007FFF;exitX=0.5;exitY=0;exitDx=0;exitDy=0;entryX=0.5;entryY=1;entryDx=0;entryDy=0;" edge="1" parent="1" source="ETqiRZU85Ff0N8fMpSK4-48" target="ETqiRZU85Ff0N8fMpSK4-37">
                    <mxGeometry width="50" height="50" relative="1" as="geometry">
                        <mxPoint x="210" y="920" as="sourcePoint"/>
                        <mxPoint x="480" y="930" as="targetPoint"/>
                        <Array as="points"/>
                    </mxGeometry>
                </mxCell>
                <mxCell id="ETqiRZU85Ff0N8fMpSK4-52" value="" style="endArrow=classic;html=1;strokeColor=#007FFF;strokeWidth=3;exitX=0.75;exitY=0;exitDx=0;exitDy=0;entryX=0.25;entryY=0;entryDx=0;entryDy=0;" edge="1" parent="1" source="ETqiRZU85Ff0N8fMpSK4-32" target="ETqiRZU85Ff0N8fMpSK4-37">
                    <mxGeometry width="50" height="50" relative="1" as="geometry">
                        <mxPoint x="350" y="910" as="sourcePoint"/>
                        <mxPoint x="320" y="780" as="targetPoint"/>
                        <Array as="points">
                            <mxPoint x="244" y="760"/>
                            <mxPoint x="433" y="760"/>
                        </Array>
                    </mxGeometry>
                </mxCell>
                <mxCell id="ETqiRZU85Ff0N8fMpSK4-56" value="" style="endArrow=classic;startArrow=classic;html=1;strokeColor=#007FFF;strokeWidth=3;exitX=0.994;exitY=0.15;exitDx=0;exitDy=0;exitPerimeter=0;" edge="1" parent="1" source="ETqiRZU85Ff0N8fMpSK4-40">
                    <mxGeometry width="50" height="50" relative="1" as="geometry">
                        <mxPoint x="370" y="900" as="sourcePoint"/>
                        <mxPoint x="420" y="930" as="targetPoint"/>
                        <Array as="points">
                            <mxPoint x="380" y="1000"/>
                            <mxPoint x="380" y="970"/>
                            <mxPoint x="420" y="970"/>
                        </Array>
                    </mxGeometry>
                </mxCell>
            </root>
        </mxGraphModel>
    </diagram>
    <diagram id="-6IScFvSas7h1PH5htw0" name="Página-2">
        <mxGraphModel dx="734" dy="431" grid="1" gridSize="10" guides="1" tooltips="1" connect="1" arrows="1" fold="1" page="1" pageScale="1" pageWidth="827" pageHeight="1169" math="0" shadow="0">
            <root>
                <mxCell id="TBYSnNe4PgoXeflkojlb-0"/>
                <mxCell id="TBYSnNe4PgoXeflkojlb-1" parent="TBYSnNe4PgoXeflkojlb-0"/>
            </root>
        </mxGraphModel>
    </diagram>
</mxfile>